<?xml version="1.0" encoding="UTF-8" standalone="no"?>
<!DOCTYPE svg PUBLIC "-//W3C//DTD SVG 1.1//EN"
 "http://www.w3.org/Graphics/SVG/1.1/DTD/svg11.dtd">
<!-- Generated by graphviz version 14.0.0 (20250921.2048)
 -->
<!-- Title: Ruby UML Pages: 1 -->
<svg width="538pt" height="1021pt"
 viewBox="0.00 0.00 538.00 1021.00" xmlns="http://www.w3.org/2000/svg" xmlns:xlink="http://www.w3.org/1999/xlink">
<g id="graph0" class="graph" transform="scale(1 1) rotate(0) translate(4 1017)">
<title>Ruby UML</title>
<polygon fill="white" stroke="none" points="-4,4 -4,-1017 534,-1017 534,4 -4,4"/>
<!-- Bishop -->
<g id="node1" class="node">
<title>Bishop</title>
<path fill="#f8f9fa" stroke="black" d="M234.38,-90C234.38,-90 204.38,-90 204.38,-90 198.38,-90 192.38,-84 192.38,-78 192.38,-78 192.38,-66 192.38,-66 192.38,-60 198.38,-54 204.38,-54 204.38,-54 234.38,-54 234.38,-54 240.38,-54 246.38,-60 246.38,-66 246.38,-66 246.38,-78 246.38,-78 246.38,-84 240.38,-90 234.38,-90"/>
<text xml:space="preserve" text-anchor="middle" x="219.38" y="-75.25" font-family="Times,serif" font-size="10.00">Bishop</text>
<text xml:space="preserve" text-anchor="middle" x="219.38" y="-62.5" font-family="Times,serif" font-size="10.00">«class»</text>
</g>
<!-- Figures -->
<g id="node7" class="node">
<title>Figures</title>
<path fill="#f8f9fa" stroke="black" d="M345.62,-332C345.62,-332 314.62,-332 314.62,-332 308.62,-332 302.62,-326 302.62,-320 302.62,-320 302.62,-308 302.62,-308 302.62,-302 308.62,-296 314.62,-296 314.62,-296 345.62,-296 345.62,-296 351.62,-296 357.62,-302 357.62,-308 357.62,-308 357.62,-320 357.62,-320 357.62,-326 351.62,-332 345.62,-332"/>
<text xml:space="preserve" text-anchor="middle" x="330.12" y="-317.25" font-family="Times,serif" font-size="10.00">Figures</text>
<text xml:space="preserve" text-anchor="middle" x="330.12" y="-304.5" font-family="Times,serif" font-size="10.00">«class»</text>
</g>
<!-- Bishop&#45;&gt;Figures -->
<g id="edge1" class="edge">
<title>Bishop&#45;&gt;Figures</title>
<path fill="none" stroke="black" stroke-width="1.2" d="M229.61,-90.21C237.81,-106.55 250.01,-131.23 260,-153 281,-198.75 303.73,-252.63 317.19,-285.01"/>
<polygon fill="none" stroke="black" stroke-width="1.2" points="313.78,-285.94 320.84,-293.84 320.25,-283.26 313.78,-285.94"/>
</g>
<!-- Bishop_black -->
<g id="node2" class="node">
<title>Bishop_black</title>
<path fill="#f8f9fa" stroke="black" d="M75.25,-90C75.25,-90 15.75,-90 15.75,-90 9.75,-90 3.75,-84 3.75,-78 3.75,-78 3.75,-66 3.75,-66 3.75,-60 9.75,-54 15.75,-54 15.75,-54 75.25,-54 75.25,-54 81.25,-54 87.25,-60 87.25,-66 87.25,-66 87.25,-78 87.25,-78 87.25,-84 81.25,-90 75.25,-90"/>
<text xml:space="preserve" text-anchor="middle" x="45.5" y="-75.25" font-family="Times,serif" font-size="10.00">Bishop_black</text>
<text xml:space="preserve" text-anchor="middle" x="45.5" y="-62.5" font-family="Times,serif" font-size="10.00">«class»</text>
</g>
<!-- Bishop_black&#45;&gt;Bishop -->
<g id="edge3" class="edge">
<title>Bishop_black&#45;&gt;Bishop</title>
<path fill="none" stroke="black" stroke-width="1.2" d="M87.67,-72C115.87,-72 153,-72 180.47,-72"/>
<polygon fill="none" stroke="black" stroke-width="1.2" points="180.16,-75.5 190.16,-72 180.16,-68.5 180.16,-75.5"/>
</g>
<!-- Bishop_white -->
<g id="node3" class="node">
<title>Bishop_white</title>
<path fill="#f8f9fa" stroke="black" d="M75.62,-36C75.62,-36 15.38,-36 15.38,-36 9.38,-36 3.38,-30 3.38,-24 3.38,-24 3.38,-12 3.38,-12 3.38,-6 9.38,0 15.38,0 15.38,0 75.62,0 75.62,0 81.62,0 87.62,-6 87.62,-12 87.62,-12 87.62,-24 87.62,-24 87.62,-30 81.62,-36 75.62,-36"/>
<text xml:space="preserve" text-anchor="middle" x="45.5" y="-21.25" font-family="Times,serif" font-size="10.00">Bishop_white</text>
<text xml:space="preserve" text-anchor="middle" x="45.5" y="-8.5" font-family="Times,serif" font-size="10.00">«class»</text>
</g>
<!-- Bishop_white&#45;&gt;Bishop -->
<g id="edge2" class="edge">
<title>Bishop_white&#45;&gt;Bishop</title>
<path fill="none" stroke="black" stroke-width="1.2" d="M88.11,-31.07C116.45,-39.98 153.64,-51.66 181.03,-60.27"/>
<polygon fill="none" stroke="black" stroke-width="1.2" points="179.79,-63.55 190.38,-63.2 181.89,-56.87 179.79,-63.55"/>
</g>
<!-- Board -->
<g id="node4" class="node">
<title>Board</title>
<path fill="#f8f9fa" stroke="black" d="M60.5,-743C60.5,-743 30.5,-743 30.5,-743 24.5,-743 18.5,-737 18.5,-731 18.5,-731 18.5,-719 18.5,-719 18.5,-713 24.5,-707 30.5,-707 30.5,-707 60.5,-707 60.5,-707 66.5,-707 72.5,-713 72.5,-719 72.5,-719 72.5,-731 72.5,-731 72.5,-737 66.5,-743 60.5,-743"/>
<text xml:space="preserve" text-anchor="middle" x="45.5" y="-728.25" font-family="Times,serif" font-size="10.00">Board</text>
<text xml:space="preserve" text-anchor="middle" x="45.5" y="-715.5" font-family="Times,serif" font-size="10.00">«class»</text>
</g>
<!-- Config -->
<g id="node27" class="node">
<title>Config</title>
<polygon fill="#eef6ff" stroke="black" points="252.5,-730 249.5,-734 228.5,-734 225.5,-730 186.25,-730 186.25,-694 252.5,-694 252.5,-730"/>
<text xml:space="preserve" text-anchor="middle" x="219.38" y="-715.25" font-family="Times,serif" font-size="10.00">Config</text>
<text xml:space="preserve" text-anchor="middle" x="219.38" y="-702.5" font-family="Times,serif" font-size="10.00">«module»</text>
</g>
<!-- Board&#45;&gt;Config -->
<g id="edge20" class="edge">
<title>Board&#45;&gt;Config</title>
<path fill="none" stroke="black" stroke-dasharray="5,2" d="M72.98,-723C100.78,-720.89 144.87,-717.56 177.21,-715.11"/>
<polygon fill="black" stroke="black" points="184.78,-714.54 177.08,-718.73 182.01,-714.75 176.81,-715.14 176.81,-715.14 176.81,-715.14 182.01,-714.75 176.53,-711.55 184.78,-714.54"/>
<text xml:space="preserve" text-anchor="middle" x="134.88" y="-724" font-family="Times,serif" font-size="14.00">include</text>
</g>
<!-- DisplayBotTile -->
<g id="node5" class="node">
<title>DisplayBotTile</title>
<path fill="#f8f9fa" stroke="black" d="M78.62,-797C78.62,-797 12.38,-797 12.38,-797 6.38,-797 0.38,-791 0.38,-785 0.38,-785 0.38,-773 0.38,-773 0.38,-767 6.38,-761 12.38,-761 12.38,-761 78.62,-761 78.62,-761 84.62,-761 90.62,-767 90.62,-773 90.62,-773 90.62,-785 90.62,-785 90.62,-791 84.62,-797 78.62,-797"/>
<text xml:space="preserve" text-anchor="middle" x="45.5" y="-782.25" font-family="Times,serif" font-size="10.00">DisplayBotTile</text>
<text xml:space="preserve" text-anchor="middle" x="45.5" y="-769.5" font-family="Times,serif" font-size="10.00">«class»</text>
</g>
<!-- Tile -->
<g id="node23" class="node">
<title>Tile</title>
<path fill="#f8f9fa" stroke="black" d="M234.38,-797C234.38,-797 204.38,-797 204.38,-797 198.38,-797 192.38,-791 192.38,-785 192.38,-785 192.38,-773 192.38,-773 192.38,-767 198.38,-761 204.38,-761 204.38,-761 234.38,-761 234.38,-761 240.38,-761 246.38,-767 246.38,-773 246.38,-773 246.38,-785 246.38,-785 246.38,-791 240.38,-797 234.38,-797"/>
<text xml:space="preserve" text-anchor="middle" x="219.38" y="-782.25" font-family="Times,serif" font-size="10.00">Tile</text>
<text xml:space="preserve" text-anchor="middle" x="219.38" y="-769.5" font-family="Times,serif" font-size="10.00">«class»</text>
</g>
<!-- DisplayBotTile&#45;&gt;Tile -->
<g id="edge4" class="edge">
<title>DisplayBotTile&#45;&gt;Tile</title>
<path fill="none" stroke="black" stroke-width="1.2" d="M90.76,-779C118.54,-779 153.97,-779 180.45,-779"/>
<polygon fill="none" stroke="black" stroke-width="1.2" points="180.11,-782.5 190.11,-779 180.11,-775.5 180.11,-782.5"/>
</g>
<!-- DisplayLogger -->
<g id="node6" class="node">
<title>DisplayLogger</title>
<path fill="#f8f9fa" stroke="black" d="M79,-851C79,-851 12,-851 12,-851 6,-851 0,-845 0,-839 0,-839 0,-827 0,-827 0,-821 6,-815 12,-815 12,-815 79,-815 79,-815 85,-815 91,-821 91,-827 91,-827 91,-839 91,-839 91,-845 85,-851 79,-851"/>
<text xml:space="preserve" text-anchor="middle" x="45.5" y="-836.25" font-family="Times,serif" font-size="10.00">DisplayLogger</text>
<text xml:space="preserve" text-anchor="middle" x="45.5" y="-823.5" font-family="Times,serif" font-size="10.00">«class»</text>
</g>
<!-- Valid_moves -->
<g id="node31" class="node">
<title>Valid_moves</title>
<polygon fill="#eef6ff" stroke="black" points="530,-359 527,-363 506,-363 503,-359 451,-359 451,-323 530,-323 530,-359"/>
<text xml:space="preserve" text-anchor="middle" x="490.5" y="-344.25" font-family="Times,serif" font-size="10.00">Valid_moves</text>
<text xml:space="preserve" text-anchor="middle" x="490.5" y="-331.5" font-family="Times,serif" font-size="10.00">«module»</text>
</g>
<!-- Figures&#45;&gt;Valid_moves -->
<g id="edge22" class="edge">
<title>Figures&#45;&gt;Valid_moves</title>
<path fill="none" stroke="black" stroke-dasharray="5,2" d="M357.99,-317.83C378.56,-320.84 407.62,-325.26 433,-329.75 435.86,-330.25 438.79,-330.79 441.75,-331.34"/>
<polygon fill="black" stroke="black" points="449.44,-332.81 440.91,-334.85 446.71,-332.29 441.58,-331.31 441.58,-331.31 441.58,-331.31 446.71,-332.29 442.25,-327.77 449.44,-332.81"/>
<text xml:space="preserve" text-anchor="middle" x="407.12" y="-333.7" font-family="Times,serif" font-size="14.00">include</text>
</g>
<!-- King -->
<g id="node8" class="node">
<title>King</title>
<path fill="#f8f9fa" stroke="black" d="M234.38,-576C234.38,-576 204.38,-576 204.38,-576 198.38,-576 192.38,-570 192.38,-564 192.38,-564 192.38,-552 192.38,-552 192.38,-546 198.38,-540 204.38,-540 204.38,-540 234.38,-540 234.38,-540 240.38,-540 246.38,-546 246.38,-552 246.38,-552 246.38,-564 246.38,-564 246.38,-570 240.38,-576 234.38,-576"/>
<text xml:space="preserve" text-anchor="middle" x="219.38" y="-561.25" font-family="Times,serif" font-size="10.00">King</text>
<text xml:space="preserve" text-anchor="middle" x="219.38" y="-548.5" font-family="Times,serif" font-size="10.00">«class»</text>
</g>
<!-- King&#45;&gt;Figures -->
<g id="edge5" class="edge">
<title>King&#45;&gt;Figures</title>
<path fill="none" stroke="black" stroke-width="1.2" d="M230.53,-539.78C239.21,-523.65 251.61,-499.27 260,-477 280.88,-421.59 265.2,-396.57 297.84,-342.11"/>
<polygon fill="none" stroke="black" stroke-width="1.2" points="300.66,-344.21 303.04,-333.89 294.74,-340.47 300.66,-344.21"/>
</g>
<!-- King_black -->
<g id="node9" class="node">
<title>King_black</title>
<path fill="#f8f9fa" stroke="black" d="M69.62,-630C69.62,-630 21.38,-630 21.38,-630 15.38,-630 9.38,-624 9.38,-618 9.38,-618 9.38,-606 9.38,-606 9.38,-600 15.38,-594 21.38,-594 21.38,-594 69.62,-594 69.62,-594 75.62,-594 81.62,-600 81.62,-606 81.62,-606 81.62,-618 81.62,-618 81.62,-624 75.62,-630 69.62,-630"/>
<text xml:space="preserve" text-anchor="middle" x="45.5" y="-615.25" font-family="Times,serif" font-size="10.00">King_black</text>
<text xml:space="preserve" text-anchor="middle" x="45.5" y="-602.5" font-family="Times,serif" font-size="10.00">«class»</text>
</g>
<!-- King_black&#45;&gt;King -->
<g id="edge7" class="edge">
<title>King_black&#45;&gt;King</title>
<path fill="none" stroke="black" stroke-width="1.2" d="M82.11,-600.81C111.02,-591.73 151.65,-578.96 181.02,-569.74"/>
<polygon fill="none" stroke="black" stroke-width="1.2" points="181.84,-573.15 190.33,-566.81 179.74,-566.47 181.84,-573.15"/>
</g>
<!-- King_white -->
<g id="node10" class="node">
<title>King_white</title>
<path fill="#f8f9fa" stroke="black" d="M70,-576C70,-576 21,-576 21,-576 15,-576 9,-570 9,-564 9,-564 9,-552 9,-552 9,-546 15,-540 21,-540 21,-540 70,-540 70,-540 76,-540 82,-546 82,-552 82,-552 82,-564 82,-564 82,-570 76,-576 70,-576"/>
<text xml:space="preserve" text-anchor="middle" x="45.5" y="-561.25" font-family="Times,serif" font-size="10.00">King_white</text>
<text xml:space="preserve" text-anchor="middle" x="45.5" y="-548.5" font-family="Times,serif" font-size="10.00">«class»</text>
</g>
<!-- King_white&#45;&gt;King -->
<g id="edge6" class="edge">
<title>King_white&#45;&gt;King</title>
<path fill="none" stroke="black" stroke-width="1.2" d="M82.11,-558C110.89,-558 151.29,-558 180.63,-558"/>
<polygon fill="none" stroke="black" stroke-width="1.2" points="180.25,-561.5 190.25,-558 180.25,-554.5 180.25,-561.5"/>
</g>
<!-- Knight -->
<g id="node11" class="node">
<title>Knight</title>
<path fill="#f8f9fa" stroke="black" d="M234.38,-468C234.38,-468 204.38,-468 204.38,-468 198.38,-468 192.38,-462 192.38,-456 192.38,-456 192.38,-444 192.38,-444 192.38,-438 198.38,-432 204.38,-432 204.38,-432 234.38,-432 234.38,-432 240.38,-432 246.38,-438 246.38,-444 246.38,-444 246.38,-456 246.38,-456 246.38,-462 240.38,-468 234.38,-468"/>
<text xml:space="preserve" text-anchor="middle" x="219.38" y="-453.25" font-family="Times,serif" font-size="10.00">Knight</text>
<text xml:space="preserve" text-anchor="middle" x="219.38" y="-440.5" font-family="Times,serif" font-size="10.00">«class»</text>
</g>
<!-- Knight&#45;&gt;Figures -->
<g id="edge8" class="edge">
<title>Knight&#45;&gt;Figures</title>
<path fill="none" stroke="black" stroke-width="1.2" d="M231.26,-431.57C245.06,-408.99 270.26,-370.15 297,-341 297.08,-340.91 297.17,-340.82 297.25,-340.73"/>
<polygon fill="none" stroke="black" stroke-width="1.2" points="299.67,-343.26 304.36,-333.76 294.77,-338.26 299.67,-343.26"/>
</g>
<!-- Knight_black -->
<g id="node12" class="node">
<title>Knight_black</title>
<path fill="#f8f9fa" stroke="black" d="M74.88,-522C74.88,-522 16.12,-522 16.12,-522 10.12,-522 4.12,-516 4.12,-510 4.12,-510 4.12,-498 4.12,-498 4.12,-492 10.12,-486 16.12,-486 16.12,-486 74.88,-486 74.88,-486 80.88,-486 86.88,-492 86.88,-498 86.88,-498 86.88,-510 86.88,-510 86.88,-516 80.88,-522 74.88,-522"/>
<text xml:space="preserve" text-anchor="middle" x="45.5" y="-507.25" font-family="Times,serif" font-size="10.00">Knight_black</text>
<text xml:space="preserve" text-anchor="middle" x="45.5" y="-494.5" font-family="Times,serif" font-size="10.00">«class»</text>
</g>
<!-- Knight_black&#45;&gt;Knight -->
<g id="edge10" class="edge">
<title>Knight_black&#45;&gt;Knight</title>
<path fill="none" stroke="black" stroke-width="1.2" d="M87.23,-491.2C115.64,-482.28 153.25,-470.46 180.91,-461.77"/>
<polygon fill="none" stroke="black" stroke-width="1.2" points="181.87,-465.14 190.36,-458.8 179.77,-458.46 181.87,-465.14"/>
</g>
<!-- Knight_white -->
<g id="node13" class="node">
<title>Knight_white</title>
<path fill="#f8f9fa" stroke="black" d="M75.25,-468C75.25,-468 15.75,-468 15.75,-468 9.75,-468 3.75,-462 3.75,-456 3.75,-456 3.75,-444 3.75,-444 3.75,-438 9.75,-432 15.75,-432 15.75,-432 75.25,-432 75.25,-432 81.25,-432 87.25,-438 87.25,-444 87.25,-444 87.25,-456 87.25,-456 87.25,-462 81.25,-468 75.25,-468"/>
<text xml:space="preserve" text-anchor="middle" x="45.5" y="-453.25" font-family="Times,serif" font-size="10.00">Knight_white</text>
<text xml:space="preserve" text-anchor="middle" x="45.5" y="-440.5" font-family="Times,serif" font-size="10.00">«class»</text>
</g>
<!-- Knight_white&#45;&gt;Knight -->
<g id="edge9" class="edge">
<title>Knight_white&#45;&gt;Knight</title>
<path fill="none" stroke="black" stroke-width="1.2" d="M87.67,-450C115.87,-450 153,-450 180.47,-450"/>
<polygon fill="none" stroke="black" stroke-width="1.2" points="180.16,-453.5 190.16,-450 180.16,-446.5 180.16,-453.5"/>
</g>
<!-- Pawn -->
<g id="node14" class="node">
<title>Pawn</title>
<path fill="#f8f9fa" stroke="black" d="M234.38,-360C234.38,-360 204.38,-360 204.38,-360 198.38,-360 192.38,-354 192.38,-348 192.38,-348 192.38,-336 192.38,-336 192.38,-330 198.38,-324 204.38,-324 204.38,-324 234.38,-324 234.38,-324 240.38,-324 246.38,-330 246.38,-336 246.38,-336 246.38,-348 246.38,-348 246.38,-354 240.38,-360 234.38,-360"/>
<text xml:space="preserve" text-anchor="middle" x="219.38" y="-345.25" font-family="Times,serif" font-size="10.00">Pawn</text>
<text xml:space="preserve" text-anchor="middle" x="219.38" y="-332.5" font-family="Times,serif" font-size="10.00">«class»</text>
</g>
<!-- Pawn&#45;&gt;Figures -->
<g id="edge11" class="edge">
<title>Pawn&#45;&gt;Figures</title>
<path fill="none" stroke="black" stroke-width="1.2" d="M246.7,-335.22C259.99,-331.8 276.37,-327.58 291.01,-323.81"/>
<polygon fill="none" stroke="black" stroke-width="1.2" points="291.72,-327.25 300.53,-321.36 289.97,-320.47 291.72,-327.25"/>
</g>
<!-- Pawn_black -->
<g id="node15" class="node">
<title>Pawn_black</title>
<path fill="#f8f9fa" stroke="black" d="M71.12,-414C71.12,-414 19.87,-414 19.87,-414 13.88,-414 7.88,-408 7.88,-402 7.88,-402 7.88,-390 7.88,-390 7.88,-384 13.88,-378 19.88,-378 19.88,-378 71.12,-378 71.12,-378 77.12,-378 83.12,-384 83.12,-390 83.12,-390 83.12,-402 83.12,-402 83.12,-408 77.12,-414 71.12,-414"/>
<text xml:space="preserve" text-anchor="middle" x="45.5" y="-399.25" font-family="Times,serif" font-size="10.00">Pawn_black</text>
<text xml:space="preserve" text-anchor="middle" x="45.5" y="-386.5" font-family="Times,serif" font-size="10.00">«class»</text>
</g>
<!-- Pawn_black&#45;&gt;Pawn -->
<g id="edge13" class="edge">
<title>Pawn_black&#45;&gt;Pawn</title>
<path fill="none" stroke="black" stroke-width="1.2" d="M83.37,-384.42C112.19,-375.36 152.09,-362.82 181.03,-353.73"/>
<polygon fill="none" stroke="black" stroke-width="1.2" points="181.71,-357.19 190.2,-350.85 179.61,-350.51 181.71,-357.19"/>
</g>
<!-- Pawn_white -->
<g id="node16" class="node">
<title>Pawn_white</title>
<path fill="#f8f9fa" stroke="black" d="M71.5,-360C71.5,-360 19.5,-360 19.5,-360 13.5,-360 7.5,-354 7.5,-348 7.5,-348 7.5,-336 7.5,-336 7.5,-330 13.5,-324 19.5,-324 19.5,-324 71.5,-324 71.5,-324 77.5,-324 83.5,-330 83.5,-336 83.5,-336 83.5,-348 83.5,-348 83.5,-354 77.5,-360 71.5,-360"/>
<text xml:space="preserve" text-anchor="middle" x="45.5" y="-345.25" font-family="Times,serif" font-size="10.00">Pawn_white</text>
<text xml:space="preserve" text-anchor="middle" x="45.5" y="-332.5" font-family="Times,serif" font-size="10.00">«class»</text>
</g>
<!-- Pawn_white&#45;&gt;Pawn -->
<g id="edge12" class="edge">
<title>Pawn_white&#45;&gt;Pawn</title>
<path fill="none" stroke="black" stroke-width="1.2" d="M83.79,-342C112.39,-342 151.7,-342 180.45,-342"/>
<polygon fill="none" stroke="black" stroke-width="1.2" points="180.25,-345.5 190.25,-342 180.25,-338.5 180.25,-345.5"/>
</g>
<!-- Queen -->
<g id="node17" class="node">
<title>Queen</title>
<path fill="#f8f9fa" stroke="black" d="M234.38,-306C234.38,-306 204.38,-306 204.38,-306 198.38,-306 192.38,-300 192.38,-294 192.38,-294 192.38,-282 192.38,-282 192.38,-276 198.38,-270 204.38,-270 204.38,-270 234.38,-270 234.38,-270 240.38,-270 246.38,-276 246.38,-282 246.38,-282 246.38,-294 246.38,-294 246.38,-300 240.38,-306 234.38,-306"/>
<text xml:space="preserve" text-anchor="middle" x="219.38" y="-291.25" font-family="Times,serif" font-size="10.00">Queen</text>
<text xml:space="preserve" text-anchor="middle" x="219.38" y="-278.5" font-family="Times,serif" font-size="10.00">«class»</text>
</g>
<!-- Queen&#45;&gt;Figures -->
<g id="edge14" class="edge">
<title>Queen&#45;&gt;Figures</title>
<path fill="none" stroke="black" stroke-width="1.2" d="M246.7,-294.29C259.99,-297.47 276.37,-301.39 291.01,-304.89"/>
<polygon fill="none" stroke="black" stroke-width="1.2" points="289.98,-308.24 300.52,-307.16 291.61,-301.43 289.98,-308.24"/>
</g>
<!-- Queen_black -->
<g id="node18" class="node">
<title>Queen_black</title>
<path fill="#f8f9fa" stroke="black" d="M74.5,-306C74.5,-306 16.5,-306 16.5,-306 10.5,-306 4.5,-300 4.5,-294 4.5,-294 4.5,-282 4.5,-282 4.5,-276 10.5,-270 16.5,-270 16.5,-270 74.5,-270 74.5,-270 80.5,-270 86.5,-276 86.5,-282 86.5,-282 86.5,-294 86.5,-294 86.5,-300 80.5,-306 74.5,-306"/>
<text xml:space="preserve" text-anchor="middle" x="45.5" y="-291.25" font-family="Times,serif" font-size="10.00">Queen_black</text>
<text xml:space="preserve" text-anchor="middle" x="45.5" y="-278.5" font-family="Times,serif" font-size="10.00">«class»</text>
</g>
<!-- Queen_black&#45;&gt;Queen -->
<g id="edge16" class="edge">
<title>Queen_black&#45;&gt;Queen</title>
<path fill="none" stroke="black" stroke-width="1.2" d="M86.8,-288C115.06,-288 152.6,-288 180.35,-288"/>
<polygon fill="none" stroke="black" stroke-width="1.2" points="180.15,-291.5 190.15,-288 180.15,-284.5 180.15,-291.5"/>
</g>
<!-- Queen_white -->
<g id="node19" class="node">
<title>Queen_white</title>
<path fill="#f8f9fa" stroke="black" d="M74.88,-252C74.88,-252 16.12,-252 16.12,-252 10.12,-252 4.12,-246 4.12,-240 4.12,-240 4.12,-228 4.12,-228 4.12,-222 10.12,-216 16.12,-216 16.12,-216 74.88,-216 74.88,-216 80.88,-216 86.88,-222 86.88,-228 86.88,-228 86.88,-240 86.88,-240 86.88,-246 80.88,-252 74.88,-252"/>
<text xml:space="preserve" text-anchor="middle" x="45.5" y="-237.25" font-family="Times,serif" font-size="10.00">Queen_white</text>
<text xml:space="preserve" text-anchor="middle" x="45.5" y="-224.5" font-family="Times,serif" font-size="10.00">«class»</text>
</g>
<!-- Queen_white&#45;&gt;Queen -->
<g id="edge15" class="edge">
<title>Queen_white&#45;&gt;Queen</title>
<path fill="none" stroke="black" stroke-width="1.2" d="M87.23,-246.8C115.64,-255.72 153.25,-267.54 180.91,-276.23"/>
<polygon fill="none" stroke="black" stroke-width="1.2" points="179.77,-279.54 190.36,-279.2 181.87,-272.86 179.77,-279.54"/>
</g>
<!-- Rook -->
<g id="node20" class="node">
<title>Rook</title>
<path fill="#f8f9fa" stroke="black" d="M234.38,-198C234.38,-198 204.38,-198 204.38,-198 198.38,-198 192.38,-192 192.38,-186 192.38,-186 192.38,-174 192.38,-174 192.38,-168 198.38,-162 204.38,-162 204.38,-162 234.38,-162 234.38,-162 240.38,-162 246.38,-168 246.38,-174 246.38,-174 246.38,-186 246.38,-186 246.38,-192 240.38,-198 234.38,-198"/>
<text xml:space="preserve" text-anchor="middle" x="219.38" y="-183.25" font-family="Times,serif" font-size="10.00">Rook</text>
<text xml:space="preserve" text-anchor="middle" x="219.38" y="-170.5" font-family="Times,serif" font-size="10.00">«class»</text>
</g>
<!-- Rook&#45;&gt;Figures -->
<g id="edge17" class="edge">
<title>Rook&#45;&gt;Figures</title>
<path fill="none" stroke="black" stroke-width="1.2" d="M235.27,-198.35C253.82,-221.21 285.66,-260.44 307.05,-286.8"/>
<polygon fill="none" stroke="black" stroke-width="1.2" points="304.25,-288.9 313.27,-294.46 309.68,-284.49 304.25,-288.9"/>
</g>
<!-- Rook_black -->
<g id="node21" class="node">
<title>Rook_black</title>
<path fill="#f8f9fa" stroke="black" d="M70.38,-198C70.38,-198 20.62,-198 20.62,-198 14.62,-198 8.62,-192 8.62,-186 8.62,-186 8.62,-174 8.62,-174 8.62,-168 14.62,-162 20.62,-162 20.62,-162 70.38,-162 70.38,-162 76.38,-162 82.38,-168 82.38,-174 82.38,-174 82.38,-186 82.38,-186 82.38,-192 76.38,-198 70.38,-198"/>
<text xml:space="preserve" text-anchor="middle" x="45.5" y="-183.25" font-family="Times,serif" font-size="10.00">Rook_black</text>
<text xml:space="preserve" text-anchor="middle" x="45.5" y="-170.5" font-family="Times,serif" font-size="10.00">«class»</text>
</g>
<!-- Rook_black&#45;&gt;Rook -->
<g id="edge19" class="edge">
<title>Rook_black&#45;&gt;Rook</title>
<path fill="none" stroke="black" stroke-width="1.2" d="M82.53,-180C111.13,-180 151,-180 180.16,-180"/>
<polygon fill="none" stroke="black" stroke-width="1.2" points="180.11,-183.5 190.11,-180 180.11,-176.5 180.11,-183.5"/>
</g>
<!-- Rook_white -->
<g id="node22" class="node">
<title>Rook_white</title>
<path fill="#f8f9fa" stroke="black" d="M70.75,-144C70.75,-144 20.25,-144 20.25,-144 14.25,-144 8.25,-138 8.25,-132 8.25,-132 8.25,-120 8.25,-120 8.25,-114 14.25,-108 20.25,-108 20.25,-108 70.75,-108 70.75,-108 76.75,-108 82.75,-114 82.75,-120 82.75,-120 82.75,-132 82.75,-132 82.75,-138 76.75,-144 70.75,-144"/>
<text xml:space="preserve" text-anchor="middle" x="45.5" y="-129.25" font-family="Times,serif" font-size="10.00">Rook_white</text>
<text xml:space="preserve" text-anchor="middle" x="45.5" y="-116.5" font-family="Times,serif" font-size="10.00">«class»</text>
</g>
<!-- Rook_white&#45;&gt;Rook -->
<g id="edge18" class="edge">
<title>Rook_white&#45;&gt;Rook</title>
<path fill="none" stroke="black" stroke-width="1.2" d="M82.95,-137.45C111.83,-146.53 152.03,-159.15 181.12,-168.29"/>
<polygon fill="none" stroke="black" stroke-width="1.2" points="179.74,-171.53 190.33,-171.19 181.84,-164.85 179.74,-171.53"/>
</g>
<!-- Ai -->
<g id="node24" class="node">
<title>Ai</title>
<polygon fill="#eef6ff" stroke="black" points="78.62,-905 75.62,-909 54.62,-909 51.62,-905 12.38,-905 12.38,-869 78.62,-869 78.62,-905"/>
<text xml:space="preserve" text-anchor="middle" x="45.5" y="-890.25" font-family="Times,serif" font-size="10.00">Ai</text>
<text xml:space="preserve" text-anchor="middle" x="45.5" y="-877.5" font-family="Times,serif" font-size="10.00">«module»</text>
</g>
<!-- AiRunner -->
<g id="node25" class="node">
<title>AiRunner</title>
<polygon fill="#eef6ff" stroke="black" points="78.62,-959 75.62,-963 54.62,-963 51.62,-959 12.38,-959 12.38,-923 78.62,-923 78.62,-959"/>
<text xml:space="preserve" text-anchor="middle" x="45.5" y="-944.25" font-family="Times,serif" font-size="10.00">AiRunner</text>
<text xml:space="preserve" text-anchor="middle" x="45.5" y="-931.5" font-family="Times,serif" font-size="10.00">«module»</text>
</g>
<!-- Check -->
<g id="node26" class="node">
<title>Check</title>
<polygon fill="#eef6ff" stroke="black" points="363.25,-386 360.25,-390 339.25,-390 336.25,-386 297,-386 297,-350 363.25,-350 363.25,-386"/>
<text xml:space="preserve" text-anchor="middle" x="330.12" y="-371.25" font-family="Times,serif" font-size="10.00">Check</text>
<text xml:space="preserve" text-anchor="middle" x="330.12" y="-358.5" font-family="Times,serif" font-size="10.00">«module»</text>
</g>
<!-- Check&#45;&gt;Valid_moves -->
<g id="edge21" class="edge">
<title>Check&#45;&gt;Valid_moves</title>
<path fill="none" stroke="black" stroke-dasharray="5,2" d="M363.56,-362.47C386.04,-358.64 416.37,-353.47 441.63,-349.16"/>
<polygon fill="black" stroke="black" points="449.48,-347.82 442.2,-352.72 446.74,-348.29 441.59,-349.17 441.59,-349.17 441.59,-349.17 446.74,-348.29 440.99,-345.62 449.48,-347.82"/>
<text xml:space="preserve" text-anchor="middle" x="407.12" y="-363.22" font-family="Times,serif" font-size="14.00">include</text>
</g>
<!-- Game_states -->
<g id="node28" class="node">
<title>Game_states</title>
<polygon fill="#eef6ff" stroke="black" points="260,-663 257,-667 236,-667 233,-663 178.75,-663 178.75,-627 260,-627 260,-663"/>
<text xml:space="preserve" text-anchor="middle" x="219.38" y="-648.25" font-family="Times,serif" font-size="10.00">Game_states</text>
<text xml:space="preserve" text-anchor="middle" x="219.38" y="-635.5" font-family="Times,serif" font-size="10.00">«module»</text>
</g>
<!-- Highlight -->
<g id="node29" class="node">
<title>Highlight</title>
<polygon fill="#eef6ff" stroke="black" points="78.62,-687 75.62,-691 54.62,-691 51.62,-687 12.38,-687 12.38,-651 78.62,-651 78.62,-687"/>
<text xml:space="preserve" text-anchor="middle" x="45.5" y="-672.25" font-family="Times,serif" font-size="10.00">Highlight</text>
<text xml:space="preserve" text-anchor="middle" x="45.5" y="-659.5" font-family="Times,serif" font-size="10.00">«module»</text>
</g>
<!-- Highlight&#45;&gt;Config -->
<g id="edge23" class="edge">
<title>Highlight&#45;&gt;Config</title>
<path fill="none" stroke="black" stroke-dasharray="5,2" d="M79.1,-676.22C102,-681.4 133.33,-688.68 160.75,-695.75 166.1,-697.13 171.71,-698.64 177.25,-700.16"/>
<polygon fill="black" stroke="black" points="184.66,-702.22 175.99,-703.55 181.98,-701.48 176.95,-700.08 176.95,-700.08 176.95,-700.08 181.98,-701.48 177.92,-696.61 184.66,-702.22"/>
<text xml:space="preserve" text-anchor="middle" x="134.88" y="-699.7" font-family="Times,serif" font-size="14.00">include</text>
</g>
<!-- Highlight&#45;&gt;Game_states -->
<g id="edge24" class="edge">
<title>Highlight&#45;&gt;Game_states</title>
<path fill="none" stroke="black" stroke-dasharray="5,2" d="M78.98,-654.48C88.46,-650.91 98.98,-647.59 109,-645.75 128.5,-642.17 150.29,-641.39 169.26,-641.71"/>
<polygon fill="black" stroke="black" points="177.1,-641.92 169.01,-645.31 174.32,-641.85 169.1,-641.71 169.1,-641.71 169.1,-641.71 174.32,-641.85 169.2,-638.11 177.1,-641.92"/>
<text xml:space="preserve" text-anchor="middle" x="134.88" y="-649.7" font-family="Times,serif" font-size="14.00">include</text>
</g>
<!-- SaveGame -->
<g id="node30" class="node">
<title>SaveGame</title>
<polygon fill="#eef6ff" stroke="black" points="80.88,-1013 77.88,-1017 56.88,-1017 53.88,-1013 10.12,-1013 10.12,-977 80.88,-977 80.88,-1013"/>
<text xml:space="preserve" text-anchor="middle" x="45.5" y="-998.25" font-family="Times,serif" font-size="10.00">SaveGame</text>
<text xml:space="preserve" text-anchor="middle" x="45.5" y="-985.5" font-family="Times,serif" font-size="10.00">«module»</text>
</g>
</g>
</svg>
